<mxfile host="Electron" modified="2023-10-04T08:19:24.011Z" agent="Mozilla/5.0 (Windows NT 10.0; Win64; x64) AppleWebKit/537.36 (KHTML, like Gecko) draw.io/22.0.0 Chrome/114.0.5735.289 Electron/25.8.3 Safari/537.36" etag="jhBdFjYls7Zok7YRckHh" version="22.0.0" type="device">
  <diagram name="Page-1" id="h0MX2I7qM6A1Me37RyJ1">
    <mxGraphModel dx="1036" dy="606" grid="1" gridSize="10" guides="1" tooltips="1" connect="1" arrows="1" fold="1" page="1" pageScale="1" pageWidth="827" pageHeight="1169" math="0" shadow="0">
      <root>
        <mxCell id="0" />
        <mxCell id="1" parent="0" />
        <mxCell id="yS-7wmYX8sVjV1TJAdCG-2" value="&lt;b&gt;Broker&lt;/b&gt;" style="rounded=0;whiteSpace=wrap;html=1;sketch=1;hachureGap=4;jiggle=2;curveFitting=1;fontFamily=Architects Daughter;fontSource=https%3A%2F%2Ffonts.googleapis.com%2Fcss%3Ffamily%3DArchitects%2BDaughter;fontSize=20;verticalAlign=bottom;align=center;fillColor=#f5f5f5;fontColor=#333333;strokeColor=#666666;" vertex="1" parent="1">
          <mxGeometry x="250" y="260" width="390" height="280" as="geometry" />
        </mxCell>
        <mxCell id="yS-7wmYX8sVjV1TJAdCG-9" value="&lt;b&gt;Memory&lt;/b&gt;" style="rounded=0;whiteSpace=wrap;html=1;sketch=1;hachureGap=4;jiggle=2;curveFitting=1;fontFamily=Architects Daughter;fontSource=https%3A%2F%2Ffonts.googleapis.com%2Fcss%3Ffamily%3DArchitects%2BDaughter;fontSize=20;fillColor=#d5e8d4;strokeColor=#82b366;verticalAlign=top;align=left;" vertex="1" parent="1">
          <mxGeometry x="270" y="290" width="350" height="120" as="geometry" />
        </mxCell>
        <mxCell id="yS-7wmYX8sVjV1TJAdCG-15" style="edgeStyle=orthogonalEdgeStyle;rounded=0;sketch=1;hachureGap=4;jiggle=2;curveFitting=1;orthogonalLoop=1;jettySize=auto;html=1;exitX=1;exitY=0.5;exitDx=0;exitDy=0;entryX=0.25;entryY=0;entryDx=0;entryDy=0;fontFamily=Architects Daughter;fontSource=https%3A%2F%2Ffonts.googleapis.com%2Fcss%3Ffamily%3DArchitects%2BDaughter;fontSize=16;" edge="1" parent="1" source="yS-7wmYX8sVjV1TJAdCG-1" target="yS-7wmYX8sVjV1TJAdCG-4">
          <mxGeometry relative="1" as="geometry" />
        </mxCell>
        <mxCell id="yS-7wmYX8sVjV1TJAdCG-18" value="&lt;b style=&quot;font-size: 15px;&quot;&gt;Pwrite&lt;/b&gt;" style="edgeLabel;html=1;align=center;verticalAlign=middle;resizable=0;points=[];fontSize=15;fontFamily=Architects Daughter;" vertex="1" connectable="0" parent="yS-7wmYX8sVjV1TJAdCG-15">
          <mxGeometry x="0.2023" relative="1" as="geometry">
            <mxPoint as="offset" />
          </mxGeometry>
        </mxCell>
        <mxCell id="yS-7wmYX8sVjV1TJAdCG-1" value="Producer" style="rounded=0;whiteSpace=wrap;html=1;sketch=1;hachureGap=4;jiggle=2;curveFitting=1;fontFamily=Architects Daughter;fontSource=https%3A%2F%2Ffonts.googleapis.com%2Fcss%3Ffamily%3DArchitects%2BDaughter;fontSize=20;fontStyle=1;fillColor=#f8cecc;strokeColor=#b85450;" vertex="1" parent="1">
          <mxGeometry x="260" y="150" width="120" height="60" as="geometry" />
        </mxCell>
        <mxCell id="yS-7wmYX8sVjV1TJAdCG-16" style="edgeStyle=orthogonalEdgeStyle;rounded=0;sketch=1;hachureGap=4;jiggle=2;curveFitting=1;orthogonalLoop=1;jettySize=auto;html=1;exitX=0.75;exitY=0;exitDx=0;exitDy=0;entryX=0.5;entryY=1;entryDx=0;entryDy=0;fontFamily=Architects Daughter;fontSource=https%3A%2F%2Ffonts.googleapis.com%2Fcss%3Ffamily%3DArchitects%2BDaughter;fontSize=16;" edge="1" parent="1" source="yS-7wmYX8sVjV1TJAdCG-4" target="yS-7wmYX8sVjV1TJAdCG-14">
          <mxGeometry relative="1" as="geometry" />
        </mxCell>
        <mxCell id="yS-7wmYX8sVjV1TJAdCG-17" value="sendFile (zero-copy)" style="edgeLabel;html=1;align=center;verticalAlign=middle;resizable=0;points=[];fontSize=15;fontFamily=Architects Daughter;fontStyle=1" vertex="1" connectable="0" parent="yS-7wmYX8sVjV1TJAdCG-16">
          <mxGeometry x="-0.5749" y="-2" relative="1" as="geometry">
            <mxPoint x="64" y="-67" as="offset" />
          </mxGeometry>
        </mxCell>
        <mxCell id="yS-7wmYX8sVjV1TJAdCG-4" value="Page cache" style="rounded=0;whiteSpace=wrap;html=1;sketch=1;hachureGap=4;jiggle=2;curveFitting=1;fontFamily=Architects Daughter;fontSource=https%3A%2F%2Ffonts.googleapis.com%2Fcss%3Ffamily%3DArchitects%2BDaughter;fontSize=20;fontStyle=1;fillColor=#dae8fc;strokeColor=#6c8ebf;" vertex="1" parent="1">
          <mxGeometry x="470" y="340" width="125" height="40" as="geometry" />
        </mxCell>
        <mxCell id="yS-7wmYX8sVjV1TJAdCG-5" value="&lt;b&gt;DIsk&lt;/b&gt;" style="shape=cylinder3;whiteSpace=wrap;html=1;boundedLbl=1;backgroundOutline=1;size=15;sketch=1;hachureGap=4;jiggle=2;curveFitting=1;fontFamily=Architects Daughter;fontSource=https%3A%2F%2Ffonts.googleapis.com%2Fcss%3Ffamily%3DArchitects%2BDaughter;fontSize=20;fillColor=#e1d5e7;strokeColor=#9673a6;" vertex="1" parent="1">
          <mxGeometry x="502.5" y="430" width="60" height="80" as="geometry" />
        </mxCell>
        <mxCell id="yS-7wmYX8sVjV1TJAdCG-7" value="&lt;b&gt;JVM heap&lt;/b&gt;" style="rounded=0;whiteSpace=wrap;html=1;sketch=1;hachureGap=4;jiggle=2;curveFitting=1;fontFamily=Architects Daughter;fontSource=https%3A%2F%2Ffonts.googleapis.com%2Fcss%3Ffamily%3DArchitects%2BDaughter;fontSize=20;fillColor=#ffe6cc;strokeColor=#d79b00;" vertex="1" parent="1">
          <mxGeometry x="300" y="330" width="120" height="60" as="geometry" />
        </mxCell>
        <mxCell id="yS-7wmYX8sVjV1TJAdCG-10" style="edgeStyle=orthogonalEdgeStyle;rounded=0;sketch=1;hachureGap=4;jiggle=2;curveFitting=1;orthogonalLoop=1;jettySize=auto;html=1;exitX=0;exitY=0.5;exitDx=0;exitDy=0;exitPerimeter=0;entryX=0.176;entryY=1.035;entryDx=0;entryDy=0;entryPerimeter=0;fontFamily=Architects Daughter;fontSource=https%3A%2F%2Ffonts.googleapis.com%2Fcss%3Ffamily%3DArchitects%2BDaughter;fontSize=16;" edge="1" parent="1" source="yS-7wmYX8sVjV1TJAdCG-5" target="yS-7wmYX8sVjV1TJAdCG-4">
          <mxGeometry relative="1" as="geometry" />
        </mxCell>
        <mxCell id="yS-7wmYX8sVjV1TJAdCG-12" style="edgeStyle=orthogonalEdgeStyle;rounded=0;sketch=1;hachureGap=4;jiggle=2;curveFitting=1;orthogonalLoop=1;jettySize=auto;html=1;exitX=0.75;exitY=1;exitDx=0;exitDy=0;entryX=1;entryY=0.5;entryDx=0;entryDy=0;entryPerimeter=0;fontFamily=Architects Daughter;fontSource=https%3A%2F%2Ffonts.googleapis.com%2Fcss%3Ffamily%3DArchitects%2BDaughter;fontSize=18;" edge="1" parent="1" source="yS-7wmYX8sVjV1TJAdCG-4" target="yS-7wmYX8sVjV1TJAdCG-5">
          <mxGeometry relative="1" as="geometry">
            <Array as="points">
              <mxPoint x="564" y="390" />
              <mxPoint x="584" y="390" />
              <mxPoint x="584" y="470" />
            </Array>
          </mxGeometry>
        </mxCell>
        <mxCell id="yS-7wmYX8sVjV1TJAdCG-13" value="&lt;font style=&quot;font-size: 15px;&quot;&gt;sync&lt;/font&gt;" style="edgeLabel;html=1;align=center;verticalAlign=middle;resizable=0;points=[];fontSize=20;fontFamily=Architects Daughter;fontStyle=1" vertex="1" connectable="0" parent="yS-7wmYX8sVjV1TJAdCG-12">
          <mxGeometry x="0.1369" y="-1" relative="1" as="geometry">
            <mxPoint as="offset" />
          </mxGeometry>
        </mxCell>
        <mxCell id="yS-7wmYX8sVjV1TJAdCG-14" value="Producer" style="rounded=0;whiteSpace=wrap;html=1;sketch=1;hachureGap=4;jiggle=2;curveFitting=1;fontFamily=Architects Daughter;fontSource=https%3A%2F%2Ffonts.googleapis.com%2Fcss%3Ffamily%3DArchitects%2BDaughter;fontSize=20;fontStyle=1;fillColor=#f8cecc;strokeColor=#b85450;" vertex="1" parent="1">
          <mxGeometry x="530" y="150" width="120" height="60" as="geometry" />
        </mxCell>
      </root>
    </mxGraphModel>
  </diagram>
</mxfile>
